<svg width="232" height="18" viewBox="0 0 232 18" fill="none" xmlns="http://www.w3.org/2000/svg">
<path d="M7.06 17L3.66 12.32V17H0.24V2.2H3.66V10.38L7.04 5.84H11.26L6.62 11.44L11.3 17H7.06ZM16.0233 7.7C16.4233 7.08667 16.9233 6.60667 17.5233 6.26C18.1233 5.9 18.7899 5.72 19.5233 5.72V9.34H18.5833C17.7299 9.34 17.0899 9.52667 16.6633 9.9C16.2366 10.26 16.0233 10.9 16.0233 11.82V17H12.6033V5.84H16.0233V7.7ZM20.478 11.4C20.478 10.2533 20.6913 9.24667 21.118 8.38C21.558 7.51333 22.1513 6.84667 22.898 6.38C23.6446 5.91333 24.478 5.68 25.398 5.68C26.1846 5.68 26.8713 5.84 27.458 6.16C28.058 6.48 28.518 6.9 28.838 7.42V5.84H32.258V17H28.838V15.42C28.5046 15.94 28.038 16.36 27.438 16.68C26.8513 17 26.1646 17.16 25.378 17.16C24.4713 17.16 23.6446 16.9267 22.898 16.46C22.1513 15.98 21.558 15.3067 21.118 14.44C20.6913 13.56 20.478 12.5467 20.478 11.4ZM28.838 11.42C28.838 10.5667 28.598 9.89333 28.118 9.4C27.6513 8.90667 27.078 8.66 26.398 8.66C25.718 8.66 25.138 8.90667 24.658 9.4C24.1913 9.88 23.958 10.5467 23.958 11.4C23.958 12.2533 24.1913 12.9333 24.658 13.44C25.138 13.9333 25.718 14.18 26.398 14.18C27.078 14.18 27.6513 13.9333 28.118 13.44C28.598 12.9467 28.838 12.2733 28.838 11.42ZM45.7522 5.84V17H42.3322V15.48C41.9855 15.9733 41.5122 16.3733 40.9122 16.68C40.3255 16.9733 39.6722 17.12 38.9522 17.12C38.0989 17.12 37.3455 16.9333 36.6922 16.56C36.0389 16.1733 35.5322 15.62 35.1722 14.9C34.8122 14.18 34.6322 13.3333 34.6322 12.36V5.84H38.0322V11.9C38.0322 12.6467 38.2255 13.2267 38.6122 13.64C38.9989 14.0533 39.5189 14.26 40.1722 14.26C40.8389 14.26 41.3655 14.0533 41.7522 13.64C42.1389 13.2267 42.3322 12.6467 42.3322 11.9V5.84H45.7522ZM51.4088 14.18H56.2488V17H47.5888V14.28L52.2288 8.66H47.6287V5.84H56.1488V8.56L51.4088 14.18ZM68.6506 11.24C68.6506 11.56 68.6306 11.8933 68.5906 12.24H60.8506C60.904 12.9333 61.124 13.4667 61.5106 13.84C61.9106 14.2 62.3973 14.38 62.9706 14.38C63.824 14.38 64.4173 14.02 64.7506 13.3H68.3906C68.204 14.0333 67.864 14.6933 67.3706 15.28C66.8906 15.8667 66.284 16.3267 65.5506 16.66C64.8173 16.9933 63.9973 17.16 63.0906 17.16C61.9973 17.16 61.024 16.9267 60.1706 16.46C59.3173 15.9933 58.6506 15.3267 58.1706 14.46C57.6906 13.5933 57.4506 12.58 57.4506 11.42C57.4506 10.26 57.684 9.24667 58.1506 8.38C58.6306 7.51333 59.2973 6.84667 60.1506 6.38C61.004 5.91333 61.984 5.68 63.0906 5.68C64.1706 5.68 65.1306 5.90667 65.9706 6.36C66.8106 6.81333 67.464 7.46 67.9306 8.3C68.4106 9.14 68.6506 10.12 68.6506 11.24ZM65.1506 10.34C65.1506 9.75333 64.9506 9.28667 64.5506 8.94C64.1506 8.59333 63.6506 8.42 63.0506 8.42C62.4773 8.42 61.9906 8.58667 61.5906 8.92C61.204 9.25333 60.964 9.72667 60.8706 10.34H65.1506ZM69.7748 11.4C69.7748 10.2533 69.9882 9.24667 70.4148 8.38C70.8548 7.51333 71.4482 6.84667 72.1948 6.38C72.9415 5.91333 73.7748 5.68 74.6948 5.68C75.4815 5.68 76.1682 5.84 76.7548 6.16C77.3548 6.48 77.8148 6.9 78.1348 7.42V5.84H81.5548V17H78.1348V15.42C77.8015 15.94 77.3348 16.36 76.7348 16.68C76.1482 17 75.4615 17.16 74.6748 17.16C73.7682 17.16 72.9415 16.9267 72.1948 16.46C71.4482 15.98 70.8548 15.3067 70.4148 14.44C69.9882 13.56 69.7748 12.5467 69.7748 11.4ZM78.1348 11.42C78.1348 10.5667 77.8948 9.89333 77.4148 9.4C76.9482 8.90667 76.3748 8.66 75.6948 8.66C75.0148 8.66 74.4348 8.90667 73.9548 9.4C73.4882 9.88 73.2548 10.5467 73.2548 11.4C73.2548 12.2533 73.4882 12.9333 73.9548 13.44C74.4348 13.9333 75.0148 14.18 75.6948 14.18C76.3748 14.18 76.9482 13.9333 77.4148 13.44C77.8948 12.9467 78.1348 12.2733 78.1348 11.42ZM90.8291 5.72C92.1357 5.72 93.1757 6.14667 93.9491 7C94.7357 7.84 95.1291 9 95.1291 10.48V17H91.7291V10.94C91.7291 10.1933 91.5357 9.61333 91.1491 9.2C90.7624 8.78667 90.2424 8.58 89.5891 8.58C88.9357 8.58 88.4157 8.78667 88.0291 9.2C87.6424 9.61333 87.4491 10.1933 87.4491 10.94V17H84.0291V5.84H87.4491V7.32C87.7957 6.82667 88.2624 6.44 88.8491 6.16C89.4357 5.86667 90.0957 5.72 90.8291 5.72ZM96.8256 11.4C96.8256 10.2533 97.039 9.24667 97.4656 8.38C97.9056 7.51333 98.499 6.84667 99.2456 6.38C99.9923 5.91333 100.826 5.68 101.746 5.68C102.479 5.68 103.146 5.83333 103.746 6.14C104.359 6.44667 104.839 6.86 105.186 7.38V2.2H108.606V17H105.186V15.4C104.866 15.9333 104.406 16.36 103.806 16.68C103.219 17 102.532 17.16 101.746 17.16C100.826 17.16 99.9923 16.9267 99.2456 16.46C98.499 15.98 97.9056 15.3067 97.4656 14.44C97.039 13.56 96.8256 12.5467 96.8256 11.4ZM105.186 11.42C105.186 10.5667 104.946 9.89333 104.466 9.4C103.999 8.90667 103.426 8.66 102.746 8.66C102.066 8.66 101.486 8.90667 101.006 9.4C100.539 9.88 100.306 10.5467 100.306 11.4C100.306 12.2533 100.539 12.9333 101.006 13.44C101.486 13.9333 102.066 14.18 102.746 14.18C103.426 14.18 103.999 13.9333 104.466 13.44C104.946 12.9467 105.186 12.2733 105.186 11.42ZM114.5 2.2V17H111.08V2.2H114.5ZM127.498 11.24C127.498 11.56 127.478 11.8933 127.438 12.24H119.698C119.752 12.9333 119.972 13.4667 120.358 13.84C120.758 14.2 121.245 14.38 121.818 14.38C122.672 14.38 123.265 14.02 123.598 13.3H127.238C127.052 14.0333 126.712 14.6933 126.218 15.28C125.738 15.8667 125.132 16.3267 124.398 16.66C123.665 16.9933 122.845 17.16 121.938 17.16C120.845 17.16 119.872 16.9267 119.018 16.46C118.165 15.9933 117.498 15.3267 117.018 14.46C116.538 13.5933 116.298 12.58 116.298 11.42C116.298 10.26 116.532 9.24667 116.998 8.38C117.478 7.51333 118.145 6.84667 118.998 6.38C119.852 5.91333 120.832 5.68 121.938 5.68C123.018 5.68 123.978 5.90667 124.818 6.36C125.658 6.81333 126.312 7.46 126.778 8.3C127.258 9.14 127.498 10.12 127.498 11.24ZM123.998 10.34C123.998 9.75333 123.798 9.28667 123.398 8.94C122.998 8.59333 122.498 8.42 121.898 8.42C121.325 8.42 120.838 8.58667 120.438 8.92C120.052 9.25333 119.812 9.72667 119.718 10.34H123.998ZM133.843 17.16C132.869 17.16 132.003 16.9933 131.243 16.66C130.483 16.3267 129.883 15.8733 129.443 15.3C129.003 14.7133 128.756 14.06 128.703 13.34H132.083C132.123 13.7267 132.303 14.04 132.623 14.28C132.943 14.52 133.336 14.64 133.803 14.64C134.229 14.64 134.556 14.56 134.783 14.4C135.023 14.2267 135.143 14.0067 135.143 13.74C135.143 13.42 134.976 13.1867 134.643 13.04C134.309 12.88 133.769 12.7067 133.023 12.52C132.223 12.3333 131.556 12.14 131.023 11.94C130.489 11.7267 130.029 11.4 129.643 10.96C129.256 10.5067 129.063 9.9 129.063 9.14C129.063 8.5 129.236 7.92 129.583 7.4C129.943 6.86667 130.463 6.44667 131.143 6.14C131.836 5.83333 132.656 5.68 133.603 5.68C135.003 5.68 136.103 6.02667 136.903 6.72C137.716 7.41333 138.183 8.33333 138.303 9.48H135.143C135.089 9.09333 134.916 8.78667 134.623 8.56C134.343 8.33333 133.969 8.22 133.503 8.22C133.103 8.22 132.796 8.3 132.583 8.46C132.369 8.60667 132.263 8.81333 132.263 9.08C132.263 9.4 132.429 9.64 132.763 9.8C133.109 9.96 133.643 10.12 134.363 10.28C135.189 10.4933 135.863 10.7067 136.383 10.92C136.903 11.12 137.356 11.4533 137.743 11.92C138.143 12.3733 138.349 12.9867 138.363 13.76C138.363 14.4133 138.176 15 137.803 15.52C137.443 16.0267 136.916 16.4267 136.223 16.72C135.543 17.0133 134.749 17.16 133.843 17.16ZM142.175 4.68C141.575 4.68 141.082 4.50667 140.695 4.16C140.322 3.8 140.135 3.36 140.135 2.84C140.135 2.30667 140.322 1.86667 140.695 1.52C141.082 1.16 141.575 0.979999 142.175 0.979999C142.762 0.979999 143.242 1.16 143.615 1.52C144.002 1.86667 144.195 2.30667 144.195 2.84C144.195 3.36 144.002 3.8 143.615 4.16C143.242 4.50667 142.762 4.68 142.175 4.68ZM143.875 5.84V17H140.455V5.84H143.875ZM156.873 11.24C156.873 11.56 156.853 11.8933 156.813 12.24H149.073C149.127 12.9333 149.347 13.4667 149.733 13.84C150.133 14.2 150.62 14.38 151.193 14.38C152.047 14.38 152.64 14.02 152.973 13.3H156.613C156.427 14.0333 156.087 14.6933 155.593 15.28C155.113 15.8667 154.507 16.3267 153.773 16.66C153.04 16.9933 152.22 17.16 151.313 17.16C150.22 17.16 149.247 16.9267 148.393 16.46C147.54 15.9933 146.873 15.3267 146.393 14.46C145.913 13.5933 145.673 12.58 145.673 11.42C145.673 10.26 145.907 9.24667 146.373 8.38C146.853 7.51333 147.52 6.84667 148.373 6.38C149.227 5.91333 150.207 5.68 151.313 5.68C152.393 5.68 153.353 5.90667 154.193 6.36C155.033 6.81333 155.687 7.46 156.153 8.3C156.633 9.14 156.873 10.12 156.873 11.24ZM153.373 10.34C153.373 9.75333 153.173 9.28667 152.773 8.94C152.373 8.59333 151.873 8.42 151.273 8.42C150.7 8.42 150.213 8.58667 149.813 8.92C149.427 9.25333 149.187 9.72667 149.093 10.34H153.373ZM157.998 11.42C157.998 10.26 158.231 9.24667 158.698 8.38C159.178 7.51333 159.838 6.84667 160.678 6.38C161.531 5.91333 162.504 5.68 163.598 5.68C164.998 5.68 166.164 6.04667 167.098 6.78C168.044 7.51333 168.664 8.54667 168.958 9.88H165.318C165.011 9.02667 164.418 8.6 163.538 8.6C162.911 8.6 162.411 8.84667 162.038 9.34C161.664 9.82 161.478 10.5133 161.478 11.42C161.478 12.3267 161.664 13.0267 162.038 13.52C162.411 14 162.911 14.24 163.538 14.24C164.418 14.24 165.011 13.8133 165.318 12.96H168.958C168.664 14.2667 168.044 15.2933 167.098 16.04C166.151 16.7867 164.984 17.16 163.598 17.16C162.504 17.16 161.531 16.9267 160.678 16.46C159.838 15.9933 159.178 15.3267 158.698 14.46C158.231 13.5933 157.998 12.58 157.998 11.42ZM177.607 17L174.207 12.32V17H170.787V2.2H174.207V10.38L177.587 5.84H181.807L177.167 11.44L181.847 17H177.607ZM184.87 4.68C184.27 4.68 183.777 4.50667 183.39 4.16C183.017 3.8 182.83 3.36 182.83 2.84C182.83 2.30667 183.017 1.86667 183.39 1.52C183.777 1.16 184.27 0.979999 184.87 0.979999C185.457 0.979999 185.937 1.16 186.31 1.52C186.697 1.86667 186.89 2.30667 186.89 2.84C186.89 3.36 186.697 3.8 186.31 4.16C185.937 4.50667 185.457 4.68 184.87 4.68ZM186.57 5.84V17H183.15V5.84H186.57ZM190.649 17.16C190.049 17.16 189.555 16.9867 189.169 16.64C188.795 16.28 188.609 15.84 188.609 15.32C188.609 14.7867 188.795 14.34 189.169 13.98C189.555 13.62 190.049 13.44 190.649 13.44C191.235 13.44 191.715 13.62 192.089 13.98C192.475 14.34 192.669 14.7867 192.669 15.32C192.669 15.84 192.475 16.28 192.089 16.64C191.715 16.9867 191.235 17.16 190.649 17.16ZM194.013 11.4C194.013 10.2533 194.226 9.24667 194.653 8.38C195.093 7.51333 195.686 6.84667 196.433 6.38C197.18 5.91333 198.013 5.68 198.933 5.68C199.666 5.68 200.333 5.83333 200.933 6.14C201.546 6.44667 202.026 6.86 202.373 7.38V2.2H205.793V17H202.373V15.4C202.053 15.9333 201.593 16.36 200.993 16.68C200.406 17 199.72 17.16 198.933 17.16C198.013 17.16 197.18 16.9267 196.433 16.46C195.686 15.98 195.093 15.3067 194.653 14.44C194.226 13.56 194.013 12.5467 194.013 11.4ZM202.373 11.42C202.373 10.5667 202.133 9.89333 201.653 9.4C201.186 8.90667 200.613 8.66 199.933 8.66C199.253 8.66 198.673 8.90667 198.193 9.4C197.726 9.88 197.493 10.5467 197.493 11.4C197.493 12.2533 197.726 12.9333 198.193 13.44C198.673 13.9333 199.253 14.18 199.933 14.18C200.613 14.18 201.186 13.9333 201.653 13.44C202.133 12.9467 202.373 12.2733 202.373 11.42ZM218.787 11.24C218.787 11.56 218.767 11.8933 218.727 12.24H210.987C211.041 12.9333 211.261 13.4667 211.647 13.84C212.047 14.2 212.534 14.38 213.107 14.38C213.961 14.38 214.554 14.02 214.887 13.3H218.527C218.341 14.0333 218.001 14.6933 217.507 15.28C217.027 15.8667 216.421 16.3267 215.687 16.66C214.954 16.9933 214.134 17.16 213.227 17.16C212.134 17.16 211.161 16.9267 210.307 16.46C209.454 15.9933 208.787 15.3267 208.307 14.46C207.827 13.5933 207.587 12.58 207.587 11.42C207.587 10.26 207.821 9.24667 208.287 8.38C208.767 7.51333 209.434 6.84667 210.287 6.38C211.141 5.91333 212.121 5.68 213.227 5.68C214.307 5.68 215.267 5.90667 216.107 6.36C216.947 6.81333 217.601 7.46 218.067 8.3C218.547 9.14 218.787 10.12 218.787 11.24ZM215.287 10.34C215.287 9.75333 215.087 9.28667 214.687 8.94C214.287 8.59333 213.787 8.42 213.187 8.42C212.614 8.42 212.127 8.58667 211.727 8.92C211.341 9.25333 211.101 9.72667 211.007 10.34H215.287ZM225.612 13.8L228.032 5.84H231.672L227.712 17H223.492L219.532 5.84H223.192L225.612 13.8Z" fill="white"/>
</svg>
