<svg width="1728" height="1117" viewBox="0 0 1728 1117" fill="none" xmlns="http://www.w3.org/2000/svg">
<rect width="1728" height="1117" fill="#1F2629"/>
<g filter="url(#filter0_dd_30_159)">
<path d="M714.856 604.896C704.019 604.896 695.059 602.379 687.976 597.344C680.979 592.224 677.181 584.757 676.584 574.944H706.792C707.219 580.149 709.523 582.752 713.704 582.752C715.24 582.752 716.52 582.411 717.544 581.728C718.653 580.96 719.208 579.808 719.208 578.272C719.208 576.139 718.056 574.432 715.752 573.152C713.448 571.787 709.864 570.251 705 568.544C699.197 566.496 694.376 564.491 690.536 562.528C686.781 560.565 683.539 557.707 680.808 553.952C678.077 550.197 676.755 545.376 676.84 539.488C676.84 533.6 678.333 528.608 681.32 524.512C684.392 520.331 688.531 517.173 693.736 515.04C699.027 512.907 704.957 511.84 711.528 511.84C722.621 511.84 731.411 514.4 737.896 519.52C744.467 524.64 747.923 531.851 748.264 541.152H717.672C717.587 538.592 716.947 536.757 715.752 535.648C714.557 534.539 713.107 533.984 711.4 533.984C710.205 533.984 709.224 534.411 708.456 535.264C707.688 536.032 707.304 537.141 707.304 538.592C707.304 540.64 708.413 542.347 710.632 543.712C712.936 544.992 716.563 546.571 721.512 548.448C727.229 550.581 731.923 552.629 735.592 554.592C739.347 556.555 742.589 559.285 745.32 562.784C748.051 566.283 749.416 570.677 749.416 575.968C749.416 581.515 748.051 586.507 745.32 590.944C742.589 595.296 738.621 598.709 733.416 601.184C728.211 603.659 722.024 604.896 714.856 604.896ZM803.56 604.896C795.027 604.896 787.176 602.891 780.008 598.88C772.925 594.869 767.293 589.323 763.112 582.24C758.931 575.157 756.84 567.179 756.84 558.304C756.84 549.429 758.931 541.451 763.112 534.368C767.293 527.285 772.925 521.781 780.008 517.856C787.176 513.845 795.027 511.84 803.56 511.84C812.093 511.84 819.901 513.845 826.984 517.856C834.067 521.781 839.656 527.285 843.752 534.368C847.933 541.451 850.024 549.429 850.024 558.304C850.024 567.179 847.933 575.157 843.752 582.24C839.656 589.323 834.024 594.869 826.856 598.88C819.773 602.891 812.008 604.896 803.56 604.896ZM803.56 578.4C809.192 578.4 813.544 576.608 816.616 573.024C819.688 569.355 821.224 564.448 821.224 558.304C821.224 552.075 819.688 547.168 816.616 543.584C813.544 539.915 809.192 538.08 803.56 538.08C797.843 538.08 793.448 539.915 790.376 543.584C787.304 547.168 785.768 552.075 785.768 558.304C785.768 564.448 787.304 569.355 790.376 573.024C793.448 576.608 797.843 578.4 803.56 578.4ZM904.435 604.896C895.902 604.896 888.051 602.891 880.883 598.88C873.8 594.869 868.168 589.323 863.987 582.24C859.806 575.157 857.715 567.179 857.715 558.304C857.715 549.429 859.806 541.451 863.987 534.368C868.168 527.285 873.8 521.781 880.883 517.856C888.051 513.845 895.902 511.84 904.435 511.84C912.968 511.84 920.776 513.845 927.859 517.856C934.942 521.781 940.531 527.285 944.627 534.368C948.808 541.451 950.899 549.429 950.899 558.304C950.899 567.179 948.808 575.157 944.627 582.24C940.531 589.323 934.899 594.869 927.731 598.88C920.648 602.891 912.883 604.896 904.435 604.896ZM904.435 578.4C910.067 578.4 914.419 576.608 917.491 573.024C920.563 569.355 922.099 564.448 922.099 558.304C922.099 552.075 920.563 547.168 917.491 543.584C914.419 539.915 910.067 538.08 904.435 538.08C898.718 538.08 894.323 539.915 891.251 543.584C888.179 547.168 886.643 552.075 886.643 558.304C886.643 564.448 888.179 569.355 891.251 573.024C894.323 576.608 898.718 578.4 904.435 578.4ZM1048.06 604H1019.65L989.566 558.432V604H961.15V513.376H989.566L1019.65 559.712V513.376H1048.06V604Z" fill="#F2F5F7"/>
</g>
<defs>
<filter id="filter0_dd_30_159" x="621.584" y="469.84" width="481.478" height="203.056" filterUnits="userSpaceOnUse" color-interpolation-filters="sRGB">
<feFlood flood-opacity="0" result="BackgroundImageFix"/>
<feColorMatrix in="SourceAlpha" type="matrix" values="0 0 0 0 0 0 0 0 0 0 0 0 0 0 0 0 0 0 127 0" result="hardAlpha"/>
<feOffset dy="13"/>
<feGaussianBlur stdDeviation="27.5"/>
<feComposite in2="hardAlpha" operator="out"/>
<feColorMatrix type="matrix" values="0 0 0 0 0.94902 0 0 0 0 0.960784 0 0 0 0 0.968627 0 0 0 0.25 0"/>
<feBlend mode="normal" in2="BackgroundImageFix" result="effect1_dropShadow_30_159"/>
<feColorMatrix in="SourceAlpha" type="matrix" values="0 0 0 0 0 0 0 0 0 0 0 0 0 0 0 0 0 0 127 0" result="hardAlpha"/>
<feOffset dy="4"/>
<feGaussianBlur stdDeviation="2"/>
<feComposite in2="hardAlpha" operator="out"/>
<feColorMatrix type="matrix" values="0 0 0 0 0.94902 0 0 0 0 0.960784 0 0 0 0 0.968627 0 0 0 0.25 0"/>
<feBlend mode="normal" in2="effect1_dropShadow_30_159" result="effect2_dropShadow_30_159"/>
<feBlend mode="normal" in="SourceGraphic" in2="effect2_dropShadow_30_159" result="shape"/>
</filter>
</defs>
</svg>
