<svg width="1728" height="1117" viewBox="0 0 1728 1117" fill="none" xmlns="http://www.w3.org/2000/svg">
<rect width="1728" height="1117" fill="#F2F5F7"/>
<g filter="url(#filter0_dd_30_84)">
<path d="M714.856 603.896C704.019 603.896 695.059 601.379 687.976 596.344C680.979 591.224 677.181 583.757 676.584 573.944H706.792C707.219 579.149 709.523 581.752 713.704 581.752C715.24 581.752 716.52 581.411 717.544 580.728C718.653 579.96 719.208 578.808 719.208 577.272C719.208 575.139 718.056 573.432 715.752 572.152C713.448 570.787 709.864 569.251 705 567.544C699.197 565.496 694.376 563.491 690.536 561.528C686.781 559.565 683.539 556.707 680.808 552.952C678.077 549.197 676.755 544.376 676.84 538.488C676.84 532.6 678.333 527.608 681.32 523.512C684.392 519.331 688.531 516.173 693.736 514.04C699.027 511.907 704.957 510.84 711.528 510.84C722.621 510.84 731.411 513.4 737.896 518.52C744.467 523.64 747.923 530.851 748.264 540.152H717.672C717.587 537.592 716.947 535.757 715.752 534.648C714.557 533.539 713.107 532.984 711.4 532.984C710.205 532.984 709.224 533.411 708.456 534.264C707.688 535.032 707.304 536.141 707.304 537.592C707.304 539.64 708.413 541.347 710.632 542.712C712.936 543.992 716.563 545.571 721.512 547.448C727.229 549.581 731.923 551.629 735.592 553.592C739.347 555.555 742.589 558.285 745.32 561.784C748.051 565.283 749.416 569.677 749.416 574.968C749.416 580.515 748.051 585.507 745.32 589.944C742.589 594.296 738.621 597.709 733.416 600.184C728.211 602.659 722.024 603.896 714.856 603.896ZM803.56 603.896C795.027 603.896 787.176 601.891 780.008 597.88C772.925 593.869 767.293 588.323 763.112 581.24C758.931 574.157 756.84 566.179 756.84 557.304C756.84 548.429 758.931 540.451 763.112 533.368C767.293 526.285 772.925 520.781 780.008 516.856C787.176 512.845 795.027 510.84 803.56 510.84C812.093 510.84 819.901 512.845 826.984 516.856C834.067 520.781 839.656 526.285 843.752 533.368C847.933 540.451 850.024 548.429 850.024 557.304C850.024 566.179 847.933 574.157 843.752 581.24C839.656 588.323 834.024 593.869 826.856 597.88C819.773 601.891 812.008 603.896 803.56 603.896ZM803.56 577.4C809.192 577.4 813.544 575.608 816.616 572.024C819.688 568.355 821.224 563.448 821.224 557.304C821.224 551.075 819.688 546.168 816.616 542.584C813.544 538.915 809.192 537.08 803.56 537.08C797.843 537.08 793.448 538.915 790.376 542.584C787.304 546.168 785.768 551.075 785.768 557.304C785.768 563.448 787.304 568.355 790.376 572.024C793.448 575.608 797.843 577.4 803.56 577.4ZM904.435 603.896C895.902 603.896 888.051 601.891 880.883 597.88C873.8 593.869 868.168 588.323 863.987 581.24C859.806 574.157 857.715 566.179 857.715 557.304C857.715 548.429 859.806 540.451 863.987 533.368C868.168 526.285 873.8 520.781 880.883 516.856C888.051 512.845 895.902 510.84 904.435 510.84C912.968 510.84 920.776 512.845 927.859 516.856C934.942 520.781 940.531 526.285 944.627 533.368C948.808 540.451 950.899 548.429 950.899 557.304C950.899 566.179 948.808 574.157 944.627 581.24C940.531 588.323 934.899 593.869 927.731 597.88C920.648 601.891 912.883 603.896 904.435 603.896ZM904.435 577.4C910.067 577.4 914.419 575.608 917.491 572.024C920.563 568.355 922.099 563.448 922.099 557.304C922.099 551.075 920.563 546.168 917.491 542.584C914.419 538.915 910.067 537.08 904.435 537.08C898.718 537.08 894.323 538.915 891.251 542.584C888.179 546.168 886.643 551.075 886.643 557.304C886.643 563.448 888.179 568.355 891.251 572.024C894.323 575.608 898.718 577.4 904.435 577.4ZM1048.06 603H1019.65L989.566 557.432V603H961.15V512.376H989.566L1019.65 558.712V512.376H1048.06V603Z" fill="#1F2629"/>
</g>
<defs>
<filter id="filter0_dd_30_84" x="621.584" y="468.84" width="481.478" height="203.056" filterUnits="userSpaceOnUse" color-interpolation-filters="sRGB">
<feFlood flood-opacity="0" result="BackgroundImageFix"/>
<feColorMatrix in="SourceAlpha" type="matrix" values="0 0 0 0 0 0 0 0 0 0 0 0 0 0 0 0 0 0 127 0" result="hardAlpha"/>
<feOffset dy="13"/>
<feGaussianBlur stdDeviation="27.5"/>
<feComposite in2="hardAlpha" operator="out"/>
<feColorMatrix type="matrix" values="0 0 0 0 0.121569 0 0 0 0 0.14902 0 0 0 0 0.160784 0 0 0 0.25 0"/>
<feBlend mode="normal" in2="BackgroundImageFix" result="effect1_dropShadow_30_84"/>
<feColorMatrix in="SourceAlpha" type="matrix" values="0 0 0 0 0 0 0 0 0 0 0 0 0 0 0 0 0 0 127 0" result="hardAlpha"/>
<feOffset dy="4"/>
<feGaussianBlur stdDeviation="2"/>
<feComposite in2="hardAlpha" operator="out"/>
<feColorMatrix type="matrix" values="0 0 0 0 0.121569 0 0 0 0 0.14902 0 0 0 0 0.160784 0 0 0 0.25 0"/>
<feBlend mode="normal" in2="effect1_dropShadow_30_84" result="effect2_dropShadow_30_84"/>
<feBlend mode="normal" in="SourceGraphic" in2="effect2_dropShadow_30_84" result="shape"/>
</filter>
</defs>
</svg>
